# xmcd
#
# Track frame offsets:
# 150
# 17787
# 42510
# 59936
# 79556
#
# Disc length: 1262 seconds
#
#
# Revision: 0
# Processed by: cddbd v1.5.1PL2 Copyright (c) Steve Scherf et al.
# Submitted via: FreeRIP 2.944 
#
DISCID=3f04ec05
DTITLE=Harold Lyons - The Electric Rubboard King
DYEAR=2006
DGENRE=Bluegrass
TTITLE0=From Rags To Riches
TTITLE1=Here Comes The Bride
TTITLE2=Ruby Rubboard
TTITLE3=Country Man Blues
TTITLE4=This Train
EXTD=
EXTT0=
EXTT1=
EXTT2=
EXTT3=
EXTT4=
PLAYORDER=
